# xmcd
#
# Track frame offsets: 
#        150
#        27035
#        48487
#        65982
#        81930
#        104257
#        125207
#        150790
#        172110
#        192687
#
# Disc length: 2871 seconds
#
# Revision: 3
# Processed by: cddbd v1.5.2PL0 Copyright (c) Steve Scherf et al.
# Submitted via: ExactAudioCopy v0.95a5
#
DISCID=8c0b350a
DTITLE=Albert King and John Mayall  - The Lost Session
DYEAR=1971
DGENRE=Blues
TTITLE0=She Won't Gimme No Lovin'
TTITLE1=Cold In Hand
TTITLE2=Stop Lying
TTITLE3=All The Way Down
TTITLE4=Tell Me What True Love Is
TTITLE5=Down The Road I Go
TTITLE6=Money Lovin' Women
TTITLE7=Sun Gone Down (take 1)
TTITLE8=Brand New Razor
TTITLE9=Sun Gone Down (take 2)
EXTD=
EXTT0=
EXTT1=
EXTT2=
EXTT3=
EXTT4=
EXTT5=
EXTT6=
EXTT7=
EXTT8=
EXTT9=
PLAYORDER=
